<svg xmlns="http://www.w3.org/2000/svg" width="18" height="17.959" viewBox="0 0 18 17.959">
  <g id="call-answer" transform="translate(0.001 -0.394)">
    <g id="Group_15" data-name="Group 15" transform="translate(0 0.394)">
      <g id="Group_14" data-name="Group 14" transform="translate(0 0)">
        <path id="Path_17" data-name="Path 17" d="M17.6,14.6l-2.78-2.78a1.449,1.449,0,0,0-2.044.038l-1.4,1.4L11.1,13.1a13.937,13.937,0,0,1-3.369-2.436A14.014,14.014,0,0,1,5.286,7.292c-.052-.094-.1-.184-.151-.27l.94-.939.462-.463a1.448,1.448,0,0,0,.037-2.044L3.795.8A1.448,1.448,0,0,0,1.751.835l-.783.788.021.021A4.53,4.53,0,0,0,.344,2.783,4.721,4.721,0,0,0,.056,3.938c-.367,3.043,1.023,5.824,4.8,9.6,5.217,5.216,9.42,4.822,9.6,4.8a4.7,4.7,0,0,0,1.158-.291,4.515,4.515,0,0,0,1.135-.643l.017.015.794-.777A1.451,1.451,0,0,0,17.6,14.6Z" transform="translate(0 -0.394)" fill="#ffe95d"/>
      </g>
    </g>
  </g>
</svg>
