<svg xmlns="http://www.w3.org/2000/svg" width="33.35" height="33.872" viewBox="0 0 33.35 33.872">
  <g id="customer-service" transform="translate(-0.261)">
    <g id="Group_27" data-name="Group 27">
      <path id="Path_25" data-name="Path 25" d="M24.156,33.872a12.76,12.76,0,0,1-4.373-.93A32.809,32.809,0,0,1,8.747,25.386,32.822,32.822,0,0,1,1.19,14.35C-.046,11.075-.049,8.386,1.18,7.157c.177-.178.358-.368.544-.563C2.848,5.414,4.139,4.074,5.8,4.145c1.16.048,2.283.768,3.434,2.2,3.4,4.226,1.866,5.732.094,7.478l-.313.31c-.29.29-.839,1.633,4.26,6.731a28.268,28.268,0,0,0,4.217,3.619c.715.465,1.99,1.166,2.514.642l.315-.318c1.745-1.77,3.251-3.3,7.474.1,1.431,1.149,2.149,2.272,2.2,3.433.069,1.681-1.27,2.952-2.451,4.075-.194.185-.385.365-.562.542A3.91,3.91,0,0,1,24.156,33.872ZM5.68,5.142c-1.2,0-2.275,1.136-3.23,2.141-.192.2-.379.4-.562.58-.916.915-.822,3.323.238,6.134A31.84,31.84,0,0,0,9.454,24.68a31.813,31.813,0,0,0,10.682,7.327c2.813,1.062,5.219,1.152,6.135.237.183-.183.379-.369.58-.561,1.027-.976,2.191-2.081,2.14-3.308a4.034,4.034,0,0,0-1.825-2.695c-3.52-2.829-4.5-1.831-6.135-.176l-.32.323c-.779.781-2.047.607-3.766-.51a29.239,29.239,0,0,1-4.379-3.751c-4.231-4.231-5.585-6.819-4.26-8.146l.318-.315c1.658-1.632,2.659-2.617-.171-6.138a4.046,4.046,0,0,0-2.7-1.824Z" fill="#5fc44b"/>
    </g>
    <path id="Path_26" data-name="Path 26" d="M27.478,25.791a.5.5,0,0,1-.3-.9A13.257,13.257,0,0,0,29.92,22.2a13.092,13.092,0,0,0,2.69-7.992A13.215,13.215,0,0,0,13.083,2.605a.5.5,0,1,1-.479-.877A14.214,14.214,0,0,1,33.611,14.212a14.08,14.08,0,0,1-2.9,8.6A14.268,14.268,0,0,1,27.773,25.7.5.5,0,0,1,27.478,25.791Z" fill="#5fc44b"/>
    <g id="Group_28" data-name="Group 28">
      <path id="Path_27" data-name="Path 27" d="M16.618,8.806A6.058,6.058,0,0,1,18.4,8.514c1.6,0,2.572.8,2.572,2.156a2.282,2.282,0,0,1-1.3,1.909l-1.785,1.2a1.838,1.838,0,0,0-.8,1.584h3.649a.112.112,0,0,1,.124.123v.865a.112.112,0,0,1-.124.123h-4.8a.112.112,0,0,1-.123-.123v-.539a3.306,3.306,0,0,1,1.459-3.021l1.775-1.179c.449-.3.65-.6.65-.943,0-.629-.494-1.033-1.3-1.033a4.416,4.416,0,0,0-1.414.235l-.652.214a.112.112,0,0,1-.146-.079l-.28-.842c-.034-.067,0-.124.078-.146Z" fill="#5fc44b"/>
      <path id="Path_28" data-name="Path 28" d="M27.907,14.342a.112.112,0,0,1-.123.124h-.7v1.887a.112.112,0,0,1-.124.123h-1.01a.112.112,0,0,1-.124-.123V14.466H22.067a.112.112,0,0,1-.123-.124V13.4A.2.2,0,0,1,22,13.242c.28-.325.527-.629.8-1L24.876,9.57a9.813,9.813,0,0,0,.572-.865.182.182,0,0,1,.157-.078h1.358a.112.112,0,0,1,.124.123v4.6h.7a.112.112,0,0,1,.123.124v.864ZM25.83,11.411a9.324,9.324,0,0,1,.067-1.1c.022-.135-.078-.169-.168-.045l-1.82,2.313a4.729,4.729,0,0,1-.516.606c-.079.09-.034.168.056.168H25.83Z" fill="#5fc44b"/>
    </g>
  </g>
</svg>
