<svg xmlns="http://www.w3.org/2000/svg" width="175.167" height="54.179" viewBox="0 0 175.167 54.179">
  <g id="Group_172" data-name="Group 172" transform="translate(-119.833 -3590.163)">
    <path id="Path_35" data-name="Path 35" d="M1543.208,12109.9Zm-45.066-2.78c5.969-10.676,7.514-22.129,3.179-32.173,1.507,8.42.826,18.629-3.364,27.088a.434.434,0,0,1-.369.243.429.429,0,0,1-.4-.2c-1.681-2.439-4.607-5.59-6-9.479-4.8-13.456,7.553-29.227,7.815-28.954,15.9,14.438,14.465,26.631,6.668,37.869,11.577-7.271,23.826-8.166,37.532,8.381.262.271-16.049,11.9-29.269,6.494-3.82-1.556-6.834-4.627-9.206-6.416a.421.421,0,0,1-.175-.409.432.432,0,0,1,.262-.35c8.632-3.811,18.868-4.034,27.208-2.149-9.837-4.783-21.347-3.753-32.283,1.732-.068.068-2.819,1.828-7.038,5.172C1496.256,12109.867,1498.064,12107.183,1498.142,12107.116Zm.865-43.47Z" transform="translate(-1370.252 -8473.479)" fill="#5fc44b" fill-rule="evenodd"/>
    <path id="Path_36" data-name="Path 36" d="M5263.293,12687.131h-3.062l-6.231-21.652h3.092Zm3.781-16.383h3.14l-6.61,16.383h-3.1Zm-.272,0h0Zm7.991,16.383h-3.1l-6.231-21.652h3.13Zm5.5-21.613h3.168l-8.4,21.613h-3.13Zm20.618,19.824a14.178,14.178,0,0,1-2.819,1.537,9.576,9.576,0,0,1-3.685.67,9.465,9.465,0,0,1-3.12-.5,7.652,7.652,0,0,1-2.479-1.43,6.946,6.946,0,0,1-1.682-2.314,8.1,8.1,0,0,1-.71-3.131V12680a10.859,10.859,0,0,1-1.118.088,3.448,3.448,0,0,0-1.118.223v-3.131a4.91,4.91,0,0,1,1.137-.2c.37-.031.749-.059,1.137-.107a8.124,8.124,0,0,1,.758-3.023,7.657,7.657,0,0,1,1.75-2.383,8.024,8.024,0,0,1,2.625-1.545,9.6,9.6,0,0,1,3.333-.555,7.331,7.331,0,0,1,3.548.865,5.778,5.778,0,0,1,1.993,1.9,4.831,4.831,0,0,1,.8,2.711,4.765,4.765,0,0,1-1.069,2.965,5.04,5.04,0,0,1-2.634,1.879,12.482,12.482,0,0,1-3.325.426c-.525,0-1.138-.018-1.837-.066s-1.342-.068-1.915-.068a3.27,3.27,0,0,0-.447.02c-.137.01-.263.029-.379.049v.174a3.671,3.671,0,0,0,1.361,3.084,5.393,5.393,0,0,0,3.393,1.049,9.661,9.661,0,0,0,1.906-.176,8.583,8.583,0,0,0,1.652-.486,10.913,10.913,0,0,0,1.5-.719c.486-.271.972-.572,1.449-.895Zm-5.57-12.98a7.433,7.433,0,0,0-2.051.283,5.611,5.611,0,0,0-1.759.826,4.361,4.361,0,0,0-1.273,1.391,4.748,4.748,0,0,0-.6,2.012l1.856-.068a13.508,13.508,0,0,0,1.429.086c.564.012,1.109.021,1.644.021a10.77,10.77,0,0,0,1.371-.088,3.95,3.95,0,0,0,1.224-.35,2.1,2.1,0,0,0,.855-.7,2.131,2.131,0,0,0-.592-2.9A4.293,4.293,0,0,0,5295.342,12672.361Zm13.075,11.775h10.741v2.994h-13.774v-21.652h3.033Zm27.811-4.064v2.566c0,.836,0,1.584-.02,2.236s-.01,1.186-.01,1.584v.643h-3.169v-1.8a5.4,5.4,0,0,1-2.411,1.73,8.461,8.461,0,0,1-2.887.516,8.6,8.6,0,0,1-2.411-.359,6.814,6.814,0,0,1-2.168-1.09,5.393,5.393,0,0,1-1.555-1.809,5.244,5.244,0,0,1-.583-2.527,5.984,5.984,0,0,1,.5-2.547,4.723,4.723,0,0,1,1.381-1.74,5.686,5.686,0,0,1,2.061-.982,10.411,10.411,0,0,1,2.6-.312,16.746,16.746,0,0,1,2.634.217,18.245,18.245,0,0,1,2.838.65v-.137a1.951,1.951,0,0,0,.068-.486v-.447a3.379,3.379,0,0,0-.36-1.613,3.3,3.3,0,0,0-.952-1.137,3.907,3.907,0,0,0-1.323-.672,5.04,5.04,0,0,0-1.536-.225,6.853,6.853,0,0,0-1.478.166,4.241,4.241,0,0,0-1.3.553,3.206,3.206,0,0,0-.962.955,2.524,2.524,0,0,0-.418,1.352H5321.6a6.314,6.314,0,0,1,.739-2.646,6.088,6.088,0,0,1,1.624-1.877,7,7,0,0,1,2.216-1.115,8.655,8.655,0,0,1,2.546-.381,9.789,9.789,0,0,1,2.858.408,6.19,6.19,0,0,1,3.976,3.6,9.117,9.117,0,0,1,.642,3.393v.176c.341-.049.69-.107,1.05-.176s.729-.146,1.118-.242v3.236Zm-3.169.076a3.851,3.851,0,0,1-.739-.135c-.349-.088-.768-.186-1.234-.3-.477-.1-.982-.2-1.517-.291a9.478,9.478,0,0,0-1.565-.137,7.286,7.286,0,0,0-1.254.115,4.039,4.039,0,0,0-1.244.439,3.067,3.067,0,0,0-.943.8,2.036,2.036,0,0,0-.058,2.283,3.224,3.224,0,0,0,.884.857,5.1,5.1,0,0,0,1.274.572,5.573,5.573,0,0,0,1.545.205,4.975,4.975,0,0,0,1.828-.332,6.874,6.874,0,0,0,1.526-.816,4.709,4.709,0,0,0,1.069-1.029,2.091,2.091,0,0,0,.428-1.012Zm10.645-5.891a1.675,1.675,0,0,0,.827,1.518,7.718,7.718,0,0,0,2.041.846c.817.213,1.7.418,2.654.6a11.492,11.492,0,0,1,2.654.826,5.691,5.691,0,0,1,2.042,1.506,3.881,3.881,0,0,1,.826,2.617,4.753,4.753,0,0,1-.583,2.4,5.332,5.332,0,0,1-1.536,1.682,6.67,6.67,0,0,1-2.178,1,9.981,9.981,0,0,1-5.24-.057,8.045,8.045,0,0,1-2.41-1.1,5.661,5.661,0,0,1-1.72-1.809,4.862,4.862,0,0,1-.652-2.527c0-.088.01-.2.02-.312s.02-.262.02-.445h2.887a1.374,1.374,0,0,0-.029.271v.281a2.406,2.406,0,0,0,.409,1.391,3.418,3.418,0,0,0,1.069,1,5.272,5.272,0,0,0,1.477.6,7.141,7.141,0,0,0,1.692.205,5.746,5.746,0,0,0,1.438-.178,4.447,4.447,0,0,0,1.225-.477,2.714,2.714,0,0,0,.866-.758,1.725,1.725,0,0,0,.32-1.029,1.523,1.523,0,0,0-.806-1.4,7.571,7.571,0,0,0-2.012-.758c-.808-.2-1.672-.379-2.615-.564a11.032,11.032,0,0,1-2.615-.846,5.8,5.8,0,0,1-2.022-1.547,4.144,4.144,0,0,1-.807-2.7,4.921,4.921,0,0,1,.516-2.295,4.821,4.821,0,0,1,1.38-1.615,6.092,6.092,0,0,1,1.983-.963,8.02,8.02,0,0,1,2.323-.328,8.831,8.831,0,0,1,2.557.377,7.132,7.132,0,0,1,2.255,1.119,5.443,5.443,0,0,1,1.6,1.877,5.542,5.542,0,0,1,.6,2.615v.592h-2.79c.029-.115.039-.232.058-.35s.01-.232.01-.34a2.74,2.74,0,0,0-.341-1.361,3.055,3.055,0,0,0-.933-1,4.426,4.426,0,0,0-1.322-.6,5.715,5.715,0,0,0-1.536-.205,4.634,4.634,0,0,0-2.489.623A2.1,2.1,0,0,0,5343.7,12674.258Zm22.542,3.412c.156.039.408.125.739.234a4.659,4.659,0,0,1,1.088.592,8.335,8.335,0,0,1,1.186,1.059,7.015,7.015,0,0,1,1.1,1.693,11.565,11.565,0,0,1,.827,2.479,16.987,16.987,0,0,1,.359,3.4h-3.169a10.181,10.181,0,0,0-.544-3.7,4.851,4.851,0,0,0-1.536-2.139,5.394,5.394,0,0,0-2.324-.982,17.349,17.349,0,0,0-2.955-.242v7.029h-3.169V12665h3.169v11.8c.321,0,.632-.01.943-.029a4.028,4.028,0,0,1,.943.029l5.337-6.922h3.957Zm17.205,9.84a8.781,8.781,0,0,1-3.557-.721,9.517,9.517,0,0,1-2.926-1.963,9.312,9.312,0,0,1-1.983-2.889,9.024,9.024,0,0,1,0-7.059,9.269,9.269,0,0,1,4.909-4.852,8.818,8.818,0,0,1,3.557-.727,8.717,8.717,0,0,1,3.53.727,9.2,9.2,0,0,1,2.916,1.955,9.319,9.319,0,0,1,1.954,2.9,8.907,8.907,0,0,1,0,7.059,9.239,9.239,0,0,1-1.954,2.889,9.35,9.35,0,0,1-2.916,1.963A8.68,8.68,0,0,1,5383.451,12687.51Zm0-14.973a5.855,5.855,0,0,0-2.332.467,5.988,5.988,0,0,0-3.208,3.109,5.584,5.584,0,0,0-.476,2.314,5.525,5.525,0,0,0,.476,2.3,6.475,6.475,0,0,0,1.293,1.877,6.065,6.065,0,0,0,1.915,1.273,5.889,5.889,0,0,0,2.332.467,5.809,5.809,0,0,0,2.324-.467,5.985,5.985,0,0,0,1.9-1.273,6.072,6.072,0,0,0,1.273-1.877,5.67,5.67,0,0,0,.467-2.3,5.773,5.773,0,0,0-1.74-4.17,6.066,6.066,0,0,0-1.9-1.254A5.776,5.776,0,0,0,5383.451,12672.537Z" transform="translate(-5097.58 -9068.992)" fill="#fff"/>
    <path id="Path_37" data-name="Path 37" d="M7581.377,16048.031h-2.6v5.844H7577.6v-5.844H7575v-.914h6.377Zm5.376,1.73a2.37,2.37,0,0,0-.117-.758,1.588,1.588,0,0,0-.885-.982,1.941,1.941,0,0,0-.729-.137,1.817,1.817,0,0,0-1.352.5,2.324,2.324,0,0,0-.612,1.379Zm.952,3.17a2.2,2.2,0,0,1-.525.457,3.017,3.017,0,0,1-.65.33,4.278,4.278,0,0,1-.729.184,4.506,4.506,0,0,1-.739.068,3.412,3.412,0,0,1-1.283-.242,2.739,2.739,0,0,1-1.021-.689,3.009,3.009,0,0,1-.671-1.129,4.447,4.447,0,0,1-.243-1.545,3.88,3.88,0,0,1,.214-1.322,3.166,3.166,0,0,1,.622-1.07,2.793,2.793,0,0,1,.991-.7,3.229,3.229,0,0,1,1.322-.262,3.042,3.042,0,0,1,1.127.205,2.537,2.537,0,0,1,1.478,1.533,3.552,3.552,0,0,1,.215,1.283.785.785,0,0,1-.059.371.236.236,0,0,1-.224.1h-4.511a3.83,3.83,0,0,0,.175,1.117,2.181,2.181,0,0,0,.438.787,1.716,1.716,0,0,0,.66.467,2.238,2.238,0,0,0,.866.166,2.573,2.573,0,0,0,.776-.107,3.845,3.845,0,0,0,.555-.223c.155-.08.282-.156.389-.225a.542.542,0,0,1,.271-.107.25.25,0,0,1,.225.117Zm5.667-5.475a.7.7,0,0,1,.243-.24.664.664,0,0,1,.331-.1h.923l-1.75,2.578a1.729,1.729,0,0,1-.34.4,1.163,1.163,0,0,1-.427.254,1.5,1.5,0,0,1,.544.264,1.716,1.716,0,0,1,.389.477l1.778,2.789h-.825a.821.821,0,0,1-.8-.408l-1.312-2.1a1.026,1.026,0,0,0-.942-.523h-.72v3.043h-1.2v-6.768h1.2v2.928h.632a.942.942,0,0,0,.836-.457Zm7.232.865a.634.634,0,0,1-.107.109.246.246,0,0,1-.146.047.384.384,0,0,1-.224-.088,3.091,3.091,0,0,0-.291-.186,2.451,2.451,0,0,0-.438-.184,1.945,1.945,0,0,0-.631-.078,2.058,2.058,0,0,0-.875.176,1.716,1.716,0,0,0-.642.5,2.31,2.31,0,0,0-.379.809,3.987,3.987,0,0,0-.136,1.061,4.039,4.039,0,0,0,.136,1.088,2.491,2.491,0,0,0,.4.807,1.663,1.663,0,0,0,.622.486,1.884,1.884,0,0,0,.816.174,2.054,2.054,0,0,0,.71-.105,2.191,2.191,0,0,0,.466-.223c.127-.09.224-.166.312-.234a.366.366,0,0,1,.243-.107.261.261,0,0,1,.224.117l.33.438a2.885,2.885,0,0,1-.5.467,3.116,3.116,0,0,1-.6.32,3.877,3.877,0,0,1-.681.2,4.362,4.362,0,0,1-.719.057,2.938,2.938,0,0,1-1.176-.232,2.719,2.719,0,0,1-.943-.682,3.115,3.115,0,0,1-.622-1.088,4.331,4.331,0,0,1-.233-1.477,4.579,4.579,0,0,1,.214-1.391,3.057,3.057,0,0,1,.612-1.107,2.973,2.973,0,0,1,.992-.721,3.315,3.315,0,0,1,1.36-.262,3.157,3.157,0,0,1,1.254.232,3.067,3.067,0,0,1,.963.652Zm7.281-.291h-2.6v5.844H7604.1v-5.844h-2.6v-.914h6.377Zm6.921-.914v6.758h-1.186v-4.59c0-.086,0-.184.009-.281s.021-.205.029-.312c-.038.09-.077.176-.116.254a2.321,2.321,0,0,1-.126.205l-3.257,4.432a1.761,1.761,0,0,1-.186.205.4.4,0,0,1-.242.1h-.719v-6.758h1.186v4.59a2.378,2.378,0,0,1-.011.271c-.009.107-.019.205-.028.313.039-.09.078-.166.117-.244s.077-.137.116-.205l3.266-4.434a1.16,1.16,0,0,1,.186-.2.392.392,0,0,1,.243-.1Zm7.8,6.758h-1.186v-5.824h-2.129c-.059.865-.137,1.605-.243,2.227a11.229,11.229,0,0,1-.379,1.6,4.846,4.846,0,0,1-.5,1.068,2.485,2.485,0,0,1-.584.633,1.728,1.728,0,0,1-.623.311,2.879,2.879,0,0,1-.642.076c-.378,0-.573-.059-.573-.174v-.758h.351a1.5,1.5,0,0,0,.457-.078,1.211,1.211,0,0,0,.456-.311,2.508,2.508,0,0,0,.438-.631,5.426,5.426,0,0,0,.369-1.072,13.985,13.985,0,0,0,.3-1.594c.077-.621.136-1.361.184-2.227h4.307Zm4.472-.865a2.057,2.057,0,0,0,.632-.088,1.272,1.272,0,0,0,.428-.252,1.13,1.13,0,0,0,.263-.391,1.244,1.244,0,0,0,.087-.475,1.2,1.2,0,0,0-.077-.457,1.01,1.01,0,0,0-.233-.371,1.317,1.317,0,0,0-.447-.252,2.3,2.3,0,0,0-.671-.088h-1.429v2.373Zm-.02-3.238a3.409,3.409,0,0,1,1.176.166,2.047,2.047,0,0,1,.769.445,1.633,1.633,0,0,1,.417.645,2.172,2.172,0,0,1,.127.756,2.094,2.094,0,0,1-.155.838,1.792,1.792,0,0,1-.477.66,2.315,2.315,0,0,1-.777.438,3.189,3.189,0,0,1-1.06.156h-2.586v-6.758h1.138v2.654Zm11.879,3.238v-4.959h-2.139c-.039.7-.106,1.313-.185,1.848s-.175,1-.272,1.4a6.781,6.781,0,0,1-.35,1.023,3.441,3.441,0,0,1-.4.689Zm2.392-.029v2.859a.324.324,0,0,1-.1.262.329.329,0,0,1-.253.1h-.719v-2.324h-5.687v1.982a.337.337,0,0,1-.077.234.266.266,0,0,1-.243.107h-.748v-3.189h.214a1.553,1.553,0,0,0,.466-.078,1.156,1.156,0,0,0,.447-.311,2.4,2.4,0,0,0,.4-.621,5.5,5.5,0,0,0,.341-1.062,14.2,14.2,0,0,0,.271-1.594c.079-.621.137-1.361.175-2.227h4.277v5.863Zm7.115.895h-1.186v-5.824h-2.129c-.059.865-.137,1.605-.243,2.227a11.087,11.087,0,0,1-.38,1.6,4.369,4.369,0,0,1-.5,1.068,2.429,2.429,0,0,1-.574.633,1.842,1.842,0,0,1-.631.311,2.886,2.886,0,0,1-.642.076c-.379,0-.564-.059-.564-.174v-.758h.341a1.564,1.564,0,0,0,.467-.078,1.282,1.282,0,0,0,.456-.311,2.477,2.477,0,0,0,.428-.631,6.072,6.072,0,0,0,.38-1.072c.106-.436.2-.973.291-1.594s.146-1.361.185-2.227h4.307Zm5.435-3.6v-2.352h-1.128a1.578,1.578,0,0,0-.642.105,1.084,1.084,0,0,0-.418.283.926.926,0,0,0-.224.377,1.583,1.583,0,0,0-.068.418,1.043,1.043,0,0,0,.4.855,1.759,1.759,0,0,0,1.1.313Zm1.137-3.16v6.758h-1.137v-2.848h-.516a1.424,1.424,0,0,0-.312.027.714.714,0,0,0-.214.088.7.7,0,0,0-.155.137,1.69,1.69,0,0,0-.136.2l-1.488,1.992a.78.78,0,0,1-.271.311.913.913,0,0,1-.477.1h-.826l1.954-2.547a1.214,1.214,0,0,1,.642-.535,2.92,2.92,0,0,1-.875-.232,2.086,2.086,0,0,1-.574-.42,1.523,1.523,0,0,1-.32-.514,1.769,1.769,0,0,1-.107-.584,1.725,1.725,0,0,1,.146-.689,1.656,1.656,0,0,1,.428-.623,2.214,2.214,0,0,1,.777-.437,3.4,3.4,0,0,1,1.157-.176Zm9.954,5.893v-4.959h-2.139c-.049.7-.107,1.313-.185,1.848s-.175,1-.282,1.4a6.962,6.962,0,0,1-.34,1.023,3.441,3.441,0,0,1-.4.689Zm2.382-.029v2.859a.356.356,0,0,1-.088.262.342.342,0,0,1-.253.1h-.729v-2.324H7660.6v1.982a.392.392,0,0,1-.077.234.273.273,0,0,1-.253.107h-.748v-3.189h.223a1.565,1.565,0,0,0,.468-.078,1.133,1.133,0,0,0,.437-.311,2.171,2.171,0,0,0,.408-.621,5.5,5.5,0,0,0,.341-1.062,12.6,12.6,0,0,0,.262-1.594c.079-.621.137-1.361.185-2.227h4.278v5.863Zm3.937-5.969a3.378,3.378,0,0,1,1.332.252,2.891,2.891,0,0,1,1.021.7,3.08,3.08,0,0,1,.642,1.09,4.776,4.776,0,0,1,0,2.889,3.179,3.179,0,0,1-.642,1.088,2.891,2.891,0,0,1-1.021.7,3.563,3.563,0,0,1-1.332.242,3.656,3.656,0,0,1-1.342-.242,2.891,2.891,0,0,1-1.021-.7,3.376,3.376,0,0,1-.642-1.088,4.776,4.776,0,0,1,0-2.889,3.265,3.265,0,0,1,.642-1.09,2.891,2.891,0,0,1,1.021-.7A3.466,3.466,0,0,1,7671.284,16047.012Zm0,6.027a1.739,1.739,0,0,0,1.5-.67,3.784,3.784,0,0,0,0-3.746,1.721,1.721,0,0,0-1.5-.68,2.076,2.076,0,0,0-.885.176,1.654,1.654,0,0,0-.622.5,2.3,2.3,0,0,0-.379.8,4.564,4.564,0,0,0-.117,1.08,3.1,3.1,0,0,0,.5,1.867A1.759,1.759,0,0,0,7671.284,16053.039Zm12.238-5.941v6.777h-1.069v-4.482c0-.125.011-.273.02-.416.02-.158.039-.3.068-.439l-2.353,4.123a.4.4,0,0,1-.136.154.346.346,0,0,1-.2.059h-.127a.342.342,0,0,1-.2-.059.523.523,0,0,1-.146-.154l-2.382-4.133c.02.137.039.281.058.438a3.357,3.357,0,0,1,.02.428v4.482H7676v-6.777h.952a.525.525,0,0,1,.243.059.455.455,0,0,1,.214.215l2.1,3.52c.105.205.193.418.281.641a3.736,3.736,0,0,1,.263-.641l2.07-3.52a.443.443,0,0,1,.2-.215.552.552,0,0,1,.242-.059Zm5.541,3.734a9.96,9.96,0,0,0-1.39.137,3.58,3.58,0,0,0-.943.271,1.2,1.2,0,0,0-.524.389.866.866,0,0,0-.166.506,1.106,1.106,0,0,0,.087.457.917.917,0,0,0,.234.322,1.042,1.042,0,0,0,.359.174,1.583,1.583,0,0,0,.428.059,2.642,2.642,0,0,0,.573-.059,2.734,2.734,0,0,0,.5-.186,2.105,2.105,0,0,0,.438-.291,2.6,2.6,0,0,0,.408-.379Zm-3.83-2.762a3.99,3.99,0,0,1,1.205-.807,3.817,3.817,0,0,1,1.439-.264,2.506,2.506,0,0,1,1,.186,2.055,2.055,0,0,1,.739.525,2.2,2.2,0,0,1,.456.807,3.467,3.467,0,0,1,.156,1.041v4.316h-.535a.5.5,0,0,1-.263-.059.414.414,0,0,1-.146-.223l-.137-.643c-.175.164-.35.311-.515.438a3.224,3.224,0,0,1-.534.32,3.046,3.046,0,0,1-.594.205,3.3,3.3,0,0,1-.71.068,2.587,2.587,0,0,1-.737-.107,1.79,1.79,0,0,1-.6-.332,1.425,1.425,0,0,1-.407-.562,1.959,1.959,0,0,1-.146-.787,1.511,1.511,0,0,1,.214-.777,1.9,1.9,0,0,1,.719-.652,4.62,4.62,0,0,1,1.283-.477,10.5,10.5,0,0,1,1.944-.205v-.523a1.787,1.787,0,0,0-.341-1.2,1.2,1.2,0,0,0-.99-.4,2.11,2.11,0,0,0-.739.107,3.025,3.025,0,0,0-.506.244c-.146.1-.272.176-.379.252a.571.571,0,0,1-.312.107.36.36,0,0,1-.2-.059.755.755,0,0,1-.146-.156Z" transform="translate(-7396.018 -12418.109)" fill="#fff"/>
  </g>
</svg>
