<svg xmlns="http://www.w3.org/2000/svg" width="16" height="15.85" viewBox="0 0 16 15.85">
  <g id="user-silhouette" transform="translate(0.001 -1.916)">
    <g id="Group_18" data-name="Group 18" transform="translate(-0.001 1.916)">
      <path id="Path_20" data-name="Path 20" d="M116.43,10.314c1.981,0,3.587-1.88,3.587-4.2,0-3.216-1.606-4.2-3.587-4.2s-3.587.983-3.587,4.2C112.843,8.434,114.449,10.314,116.43,10.314Z" transform="translate(-108.43 -1.916)" fill="#363636"/>
      <path id="Path_21" data-name="Path 21" d="M15.921,227.4l-1.81-4.077a.908.908,0,0,0-.409-.436l-2.809-1.462a.181.181,0,0,0-.193.016,4.431,4.431,0,0,1-5.4,0,.181.181,0,0,0-.193-.016L2.3,222.885a.908.908,0,0,0-.409.436L.078,227.4A.9.9,0,0,0,.9,228.67H15.094a.9.9,0,0,0,.827-1.272Z" transform="translate(0.001 -212.82)" fill="#363636"/>
    </g>
  </g>
</svg>
