<svg xmlns="http://www.w3.org/2000/svg" width="17" height="18.71" viewBox="0 0 17 18.71">
  <path id="Path_29" data-name="Path 29" d="M117.172,99.367a24.945,24.945,0,0,0-9.362,0,5.4,5.4,0,0,0-3.4,3.258,17.907,17.907,0,0,0,0,7.682,5.4,5.4,0,0,0,3.4,3.258h0a.129.129,0,0,1,.1.126v3.734a.208.208,0,0,0,.358.143l1.774-1.82,1.668-1.712a.127.127,0,0,1,.095-.038,24.971,24.971,0,0,0,5.362-.433,5.4,5.4,0,0,0,3.4-3.258,17.885,17.885,0,0,0,0-7.683A5.4,5.4,0,0,0,117.172,99.367Zm.047,11.131a2.88,2.88,0,0,1-1.237,1.363,2.974,2.974,0,0,1-.535.17c-.209-.063-.408-.106-.593-.183a13.467,13.467,0,0,1-5.075-3.392,13.168,13.168,0,0,1-1.941-2.971c-.249-.506-.459-1.033-.673-1.555a1.349,1.349,0,0,1,.395-1.329,3.12,3.12,0,0,1,1.045-.785.671.671,0,0,1,.839.2,10.822,10.822,0,0,1,1.3,1.817A.865.865,0,0,1,110.5,105c-.1.067-.188.145-.279.221a.915.915,0,0,0-.211.222.609.609,0,0,0-.041.535,4.84,4.84,0,0,0,2.718,3.009,1.383,1.383,0,0,0,.7.169c.426-.05.564-.517.862-.761a.812.812,0,0,1,.978-.043c.314.2.619.412.922.628a10.553,10.553,0,0,1,.867.66A.688.688,0,0,1,117.219,110.5Zm-2.473-4.465c-.119,0-.072,0-.027,0a.306.306,0,0,1-.316-.3,3.154,3.154,0,0,0-.059-.4,1.126,1.126,0,0,0-.415-.652,1.083,1.083,0,0,0-.339-.163c-.154-.044-.313-.032-.467-.07a.286.286,0,0,1-.233-.332.3.3,0,0,1,.318-.242,1.723,1.723,0,0,1,1.765,1.716.794.794,0,0,1,0,.243.249.249,0,0,1-.209.2C114.768,106.03,114.766,106.031,114.746,106.032Zm-.6-2.616a3.418,3.418,0,0,0-.947-.291c-.143-.024-.287-.038-.431-.058a.273.273,0,0,1-.258-.306.269.269,0,0,1,.3-.266,3.939,3.939,0,0,1,1.642.428,3.32,3.32,0,0,1,1.807,2.58c.008.053.02.1.024.157.01.13.016.261.026.432a1.157,1.157,0,0,1-.025.174.285.285,0,0,1-.536.029.757.757,0,0,1-.03-.242,3.035,3.035,0,0,0-.384-1.523A2.834,2.834,0,0,0,114.142,103.417ZM117.354,107c-.2,0-.291-.166-.3-.346-.026-.357-.044-.715-.093-1.068a4.477,4.477,0,0,0-3.605-3.742c-.28-.05-.566-.063-.849-.093-.179-.019-.414-.03-.453-.252a.306.306,0,0,1,.3-.345c.048,0,.1,0,.145,0,2.406.067.147.005.006,0a5.09,5.09,0,0,1,5,4.21c.075.422.1.854.135,1.282A.3.3,0,0,1,117.354,107Z" transform="translate(-103.991 -98.923)" fill="#7f498e"/>
</svg>
